<svg width="1280" height="760" viewBox="0 0 1280 760" fill="none" xmlns="http://www.w3.org/2000/svg" role="img" aria-labelledby="title desc">
  <title id="title">Diseno del Sistema del Laboratorio Local de Data Engineering Classic Models</title>
  <desc id="desc">Diagrama de arquitectura que muestra el frontend operacional, la base de datos MySQL de origen, el ETL hacia MinIO y un dashboard en Jupyter que usa la libreria DuckDB para Python para consultar archivos Parquet.</desc>

  <defs>
    <marker id="arrow" viewBox="0 0 10 10" refX="9" refY="5" markerWidth="8" markerHeight="8" orient="auto-start-reverse">
      <path d="M 0 0 L 10 5 L 0 10 z" fill="#285D63"/>
    </marker>
    <filter id="shadow" x="-10%" y="-10%" width="120%" height="130%">
      <feDropShadow dx="0" dy="8" stdDeviation="8" flood-color="#17353A" flood-opacity="0.12"/>
    </filter>
    <style>
      .bg { fill: #f7faf8; }
      .band { fill: #eef5f2; stroke: #d4e3de; stroke-width: 1; }
      .card { fill: #ffffff; stroke: #cbd8d5; stroke-width: 1.5; filter: url(#shadow); }
      .card-soft { fill: #fbfcfb; stroke: #cbd8d5; stroke-width: 1.5; }
      .title { fill: #15343a; font-family: Arial, Helvetica, sans-serif; font-size: 30px; font-weight: 700; }
      .subtitle { fill: #52676b; font-family: Arial, Helvetica, sans-serif; font-size: 16px; }
      .section { fill: #285d63; font-family: Arial, Helvetica, sans-serif; font-size: 14px; font-weight: 700; letter-spacing: 0.8px; }
      .label { fill: #17353a; font-family: Arial, Helvetica, sans-serif; font-size: 18px; font-weight: 700; }
      .body { fill: #52676b; font-family: Arial, Helvetica, sans-serif; font-size: 13px; }
      .small { fill: #52676b; font-family: Arial, Helvetica, sans-serif; font-size: 12px; }
      .mono { fill: #365054; font-family: ui-monospace, SFMono-Regular, Menlo, Monaco, Consolas, monospace; font-size: 12px; }
      .arrow { stroke: #285d63; stroke-width: 2.4; marker-end: url(#arrow); }
      .arrow-soft { stroke: #6f8f8e; stroke-width: 2; stroke-dasharray: 7 7; marker-end: url(#arrow); }
      .pill { fill: #e8f2ee; stroke: #bad0ca; stroke-width: 1; }
      .accent { fill: #eaf3f4; }
      .warn { fill: #fff4df; stroke: #e3c98e; stroke-width: 1; }
    </style>
  </defs>

  <rect class="bg" width="1280" height="760"/>

  <text x="48" y="54" class="title">Laboratorio de Data Engineering Classic Models</text>
  <text x="48" y="82" class="subtitle">Arquitectura local con Docker: app operacional, pipeline ETL, object storage y analytics en notebook.</text>

  <rect x="44" y="120" width="360" height="560" rx="8" class="band"/>
  <rect x="460" y="120" width="360" height="560" rx="8" class="band"/>
  <rect x="876" y="120" width="360" height="560" rx="8" class="band"/>

  <text x="68" y="154" class="section">SISTEMA OPERACIONAL</text>
  <text x="484" y="154" class="section">PIPELINE DE DATOS + STORAGE</text>
  <text x="900" y="154" class="section">ANALYTICS EN NOTEBOOK</text>

  <rect x="80" y="190" width="288" height="116" rx="8" class="card"/>
  <circle cx="116" cy="232" r="21" fill="#dff0e9" stroke="#9fc3b7" stroke-width="1"/>
  <svg x="98" y="214" width="36" height="36" viewBox="0 0 24 24" aria-hidden="true" fill="#111111"><title>Next.js</title><path d="M18.665 21.978C16.758 23.255 14.465 24 12 24 5.377 24 0 18.623 0 12S5.377 0 12 0s12 5.377 12 12c0 3.583-1.574 6.801-4.067 9.001L9.219 7.2H7.2v9.596h1.615V9.251l9.85 12.727Zm-3.332-8.533 1.6 2.061V7.2h-1.6v6.245Z"/></svg>
  <text x="148" y="224" class="label">Frontend Next.js</text>
  <text x="148" y="247" class="body">App interna de operaciones</text>
  <text x="148" y="268" class="mono">frontend/</text>

  <rect x="80" y="388" width="288" height="134" rx="8" class="card"/>
  <circle cx="116" cy="444" r="28" fill="#dff0e9" stroke="#9fc3b7" stroke-width="1"/>
  <svg x="93" y="421" width="46" height="46" viewBox="0 0 24 24" aria-hidden="true" fill="#4479A1"><title>MySQL</title><path d="M16.405 5.501c-.115 0-.193.014-.274.033v.013h.014c.054.104.146.18.214.273.054.107.1.214.154.32l.014-.015c.094-.066.14-.172.14-.333-.04-.047-.046-.094-.08-.14-.04-.067-.126-.1-.18-.153zM5.77 18.695h-.927a50.854 50.854 0 00-.27-4.41h-.008l-1.41 4.41H2.45l-1.4-4.41h-.01a72.892 72.892 0 00-.195 4.41H0c.055-1.966.192-3.81.41-5.53h1.15l1.335 4.064h.008l1.347-4.064h1.095c.242 2.015.384 3.86.428 5.53zm4.017-4.08c-.378 2.045-.876 3.533-1.492 4.46-.482.716-1.01 1.073-1.583 1.073-.153 0-.34-.046-.566-.138v-.494c.11.017.24.026.386.026.268 0 .483-.075.647-.222.197-.18.295-.382.295-.605 0-.155-.077-.47-.23-.944L6.23 14.615h.91l.727 2.36c.164.536.233.91.205 1.123.4-1.064.678-2.227.835-3.483zm12.325 4.08h-2.63v-5.53h.885v4.85h1.745zm-3.32.135l-1.016-.5c.09-.076.177-.158.255-.25.433-.506.648-1.258.648-2.253 0-1.83-.718-2.746-2.155-2.746-.704 0-1.254.232-1.65.697-.43.508-.646 1.256-.646 2.245 0 .972.19 1.686.574 2.14.35.41.877.615 1.583.615.264 0 .506-.033.725-.098l1.325.772.36-.622zM15.5 17.588c-.225-.36-.337-.94-.337-1.736 0-1.393.424-2.09 1.27-2.09.443 0 .77.167.977.5.224.362.336.936.336 1.723 0 1.404-.424 2.108-1.27 2.108-.445 0-.77-.167-.978-.5zm-1.658-.425c0 .47-.172.856-.516 1.156-.344.3-.803.45-1.384.45-.543 0-1.064-.172-1.573-.515l.237-.476c.438.22.833.328 1.19.328.332 0 .593-.073.783-.22a.754.754 0 00.3-.615c0-.33-.23-.61-.648-.845-.388-.213-1.163-.657-1.163-.657-.422-.307-.632-.636-.632-1.177 0-.45.157-.81.47-1.085.315-.278.72-.415 1.22-.415.512 0 .98.136 1.4.41l-.213.476a2.726 2.726 0 00-1.064-.23c-.283 0-.502.068-.654.206a.685.685 0 00-.248.524c0 .328.234.61.666.85.393.215 1.187.67 1.187.67.433.305.648.63.648 1.168zm9.382-5.852c-.535-.014-.95.04-1.297.188-.1.04-.26.04-.274.167.055.053.063.14.11.214.08.134.218.313.346.407.14.11.28.216.427.31.26.16.555.255.81.416.145.094.293.213.44.313.073.05.12.14.214.172v-.02c-.046-.06-.06-.147-.105-.214-.067-.067-.134-.127-.2-.193a3.223 3.223 0 00-.695-.675c-.214-.146-.682-.35-.77-.595l-.013-.014c.146-.013.32-.066.46-.106.227-.06.435-.047.67-.106.106-.027.213-.06.32-.094v-.06c-.12-.12-.21-.283-.334-.395a8.867 8.867 0 00-1.104-.823c-.21-.134-.476-.22-.697-.334-.08-.04-.214-.06-.26-.127-.12-.146-.19-.34-.275-.514a17.69 17.69 0 01-.547-1.163c-.12-.262-.193-.523-.34-.763-.69-1.137-1.437-1.826-2.586-2.5-.247-.14-.543-.2-.856-.274-.167-.008-.334-.02-.5-.027-.11-.047-.216-.174-.31-.235-.38-.24-1.364-.76-1.644-.072-.18.434.267.862.422 1.082.115.153.26.328.34.5.047.116.06.235.107.356.106.294.207.622.347.897.073.14.153.287.247.413.054.073.146.107.167.227-.094.136-.1.334-.154.5-.24.757-.146 1.693.194 2.25.107.166.362.534.703.393.3-.12.234-.5.32-.835.02-.08.007-.133.048-.187v.015c.094.188.188.367.274.555.206.328.566.668.867.895.16.12.287.328.487.402v-.02h-.015c-.043-.058-.1-.086-.154-.133a3.445 3.445 0 01-.35-.4 8.76 8.76 0 01-.747-1.218c-.11-.21-.202-.436-.29-.643-.04-.08-.04-.2-.107-.24-.1.146-.247.273-.32.453-.127.288-.14.642-.188 1.01-.027.007-.014 0-.027.014-.214-.052-.287-.274-.367-.46-.2-.475-.233-1.238-.06-1.785.047-.14.247-.582.167-.716-.042-.127-.174-.2-.247-.303a2.478 2.478 0 01-.24-.427c-.16-.374-.24-.788-.414-1.162-.08-.173-.22-.354-.334-.513-.127-.18-.267-.307-.368-.52-.033-.073-.08-.194-.027-.274.014-.054.042-.075.094-.09.088-.072.335.022.422.062.247.1.455.194.662.334.094.066.195.193.315.226h.14c.214.047.455.014.655.073.355.114.675.28.962.46a5.953 5.953 0 012.085 2.286c.08.154.115.295.188.455.14.33.313.663.455.982.14.315.275.636.476.897.1.14.502.213.682.286.133.06.34.115.46.188.23.14.454.3.67.454.11.076.443.243.463.378z"/></svg>
  <text x="148" y="421" class="label">MySQL</text>
  <text x="148" y="444" class="body">Base OLTP classicmodels</text>
  <text x="148" y="465" class="mono">db/</text>
  <text x="148" y="486" class="small">customers, orders, products, payments</text>

  <line x1="224" y1="306" x2="224" y2="382" class="arrow"/>
  <text x="238" y="350" class="small">lee y escribe</text>

  <rect x="496" y="220" width="288" height="128" rx="8" class="card"/>
  <circle cx="532" cy="264" r="21" fill="#fff4df" stroke="#e3c98e" stroke-width="1"/>
  <svg x="513" y="245" width="38" height="38" viewBox="0 0 24 24" aria-hidden="true" fill="#3776AB"><title>Python</title><path d="M14.25.18l.9.2.73.26.59.3.45.32.34.34.25.34.16.33.1.3.04.26.02.2-.01.13V8.5l-.05.63-.13.55-.21.46-.26.38-.3.31-.33.25-.35.19-.35.14-.33.1-.3.07-.26.04-.21.02H8.77l-.69.05-.59.14-.5.22-.41.27-.33.32-.27.35-.2.36-.15.37-.1.35-.07.32-.04.27-.02.21v3.06H3.17l-.21-.03-.28-.07-.32-.12-.35-.18-.36-.26-.36-.36-.35-.46-.32-.59-.28-.73-.21-.88-.14-1.05-.05-1.23.06-1.22.16-1.04.24-.87.32-.71.36-.57.4-.44.42-.33.42-.24.4-.16.36-.1.32-.05.24-.01h.16l.06.01h8.16v-.83H6.18l-.01-2.75-.02-.37.05-.34.11-.31.17-.28.25-.26.31-.23.38-.2.44-.18.51-.15.58-.12.64-.1.71-.06.77-.04.84-.02 1.27.05zm-6.3 1.98l-.23.33-.08.41.08.41.23.34.33.22.41.09.41-.09.33-.22.23-.34.08-.41-.08-.41-.23-.33-.33-.22-.41-.09-.41.09zm13.09 3.95l.28.06.32.12.35.18.36.27.36.35.35.47.32.59.28.73.21.88.14 1.04.05 1.23-.06 1.23-.16 1.04-.24.86-.32.71-.36.57-.4.45-.42.33-.42.24-.4.16-.36.09-.32.05-.24.02-.16-.01h-8.22v.82h5.84l.01 2.76.02.36-.05.34-.11.31-.17.29-.25.25-.31.24-.38.2-.44.17-.51.15-.58.13-.64.09-.71.07-.77.04-.84.01-1.27-.04-1.07-.14-.9-.2-.73-.25-.59-.3-.45-.33-.34-.34-.25-.34-.16-.33-.1-.3-.04-.25-.02-.2.01-.13v-5.34l.05-.64.13-.54.21-.46.26-.38.3-.32.33-.24.35-.2.35-.14.33-.1.3-.06.26-.04.21-.02.13-.01h5.84l.69-.05.59-.14.5-.21.41-.28.33-.32.27-.35.2-.36.15-.36.1-.35.07-.32.04-.28.02-.21V6.07h2.09l.14.01zm-6.47 14.25l-.23.33-.08.41.08.41.23.33.33.23.41.08.41-.08.33-.23.23-.33.08-.41-.08-.41-.23-.33-.33-.23-.41-.08-.41.08z"/></svg>
  <text x="564" y="256" class="label">ETL en Python</text>
  <text x="564" y="279" class="body">Extrae, transforma y carga</text>
  <text x="564" y="300" class="mono">etl/run_etl.py</text>
  <text x="564" y="321" class="small">full refresh hacia Parquet</text>

  <rect x="496" y="440" width="288" height="134" rx="8" class="card"/>
  <rect x="510" y="460" width="44" height="44" rx="8" fill="#eaf3f4" stroke="#a7c4c9"/>
  <svg x="518" y="468" width="28" height="28" viewBox="0 0 24 24" aria-hidden="true" fill="#C72E49"><title>MinIO</title><path d="M13.2072.006c-.6216-.0478-1.2.1943-1.6211.582a2.15 2.15 0 0 0-.0938 3.0352l3.4082 3.5507a3.042 3.042 0 0 1-.664 4.6875l-.463.2383V7.2853a15.4198 15.4198 0 0 0-8.0174 10.4862v.0176l6.5487-3.3281v7.621L13.7794 24V13.6817l.8965-.4629a4.4432 4.4432 0 0 0 1.2207-7.0292l-3.371-3.5254a.7489.7489 0 0 1 .037-1.0547.7522.7522 0 0 1 1.0567.0371l.4668.4863-.006.0059 4.0704 4.2441a.0566.0566 0 0 0 .082 0 .06.06 0 0 0 0-.0703l-3.1406-5.1425-.1484.1425.1484-.1445C14.4945.3926 13.8287.0538 13.2072.006Zm-.9024 9.8652v2.9941l-4.1523 2.1484a13.9787 13.9787 0 0 1 2.7676-3.9277 14.1784 14.1784 0 0 1 1.3847-1.2148z"/></svg>
  <text x="564" y="473" class="label">MinIO</text>
  <text x="564" y="496" class="body">Object storage compatible con S3</text>
  <text x="564" y="517" class="mono">min_io/</text>
  <text x="564" y="538" class="small">s3://classicmodels/warehouse/</text>

  <line x1="368" y1="455" x2="490" y2="284" class="arrow"/>
  <text x="380" y="340" class="small">extrae tablas origen</text>

  <line x1="640" y1="348" x2="640" y2="434" class="arrow"/>
  <text x="654" y="397" class="small">carga archivos Parquet</text>

  <rect x="902" y="250" width="288" height="260" rx="8" class="card"/>
  <rect x="922" y="274" width="44" height="44" rx="7" fill="#fff4df" stroke="#e3c98e"/>
  <svg x="930" y="282" width="28" height="28" viewBox="0 0 24 24" aria-hidden="true" fill="#F37626"><title>Jupyter</title><path d="M7.157 22.201A1.784 1.799 0 0 1 5.374 24a1.784 1.799 0 0 1-1.784-1.799 1.784 1.799 0 0 1 1.784-1.799 1.784 1.799 0 0 1 1.783 1.799zM20.582 1.427a1.415 1.427 0 0 1-1.415 1.428 1.415 1.427 0 0 1-1.416-1.428A1.415 1.427 0 0 1 19.167 0a1.415 1.427 0 0 1 1.415 1.427zM4.992 3.336A1.047 1.056 0 0 1 3.946 4.39a1.047 1.056 0 0 1-1.047-1.055A1.047 1.056 0 0 1 3.946 2.28a1.047 1.056 0 0 1 1.046 1.056zm7.336 1.517c3.769 0 7.06 1.38 8.768 3.424a9.363 9.363 0 0 0-3.393-4.547 9.238 9.238 0 0 0-5.377-1.728A9.238 9.238 0 0 0 6.95 3.73a9.363 9.363 0 0 0-3.394 4.547c1.713-2.04 5.004-3.424 8.772-3.424zm.001 13.295c-3.768 0-7.06-1.381-8.768-3.425a9.363 9.363 0 0 0 3.394 4.547A9.238 9.238 0 0 0 12.33 21a9.238 9.238 0 0 0 5.377-1.729 9.363 9.363 0 0 0 3.393-4.547c-1.712 2.044-5.003 3.425-8.772 3.425Z"/></svg>
  <text x="984" y="289" class="label">Dashboard Jupyter</text>
  <text x="984" y="312" class="body">Analisis y graficos en notebook</text>
  <text x="984" y="333" class="mono">dashboard/</text>
  <text x="984" y="354" class="small">Pandas, Seaborn, ipywidgets</text>

  <rect x="930" y="386" width="232" height="82" rx="8" class="card-soft"/>
  <circle cx="958" cy="420" r="18" fill="#dff0e9" stroke="#9fc3b7" stroke-width="1"/>
  <svg x="942" y="404" width="32" height="32" viewBox="0 0 24 24" aria-hidden="true" fill="#111111"><title>DuckDB</title><path d="M12 0C5.363 0 0 5.363 0 12s5.363 12 12 12 12-5.363 12-12S18.637 0 12 0zM9.502 7.03a4.974 4.974 0 0 1 4.97 4.97 4.974 4.974 0 0 1-4.97 4.97A4.974 4.974 0 0 1 4.532 12a4.974 4.974 0 0 1 4.97-4.97zm6.563 3.183h2.351c.98 0 1.787.782 1.787 1.762s-.807 1.789-1.787 1.789h-2.351v-3.551z"/></svg>
  <text x="988" y="411" class="label">Libreria DuckDB</text>
  <text x="988" y="433" class="body">Paquete Python usado por</text>
  <text x="988" y="452" class="body">el kernel del notebook</text>

  <line x1="784" y1="505" x2="896" y2="420" class="arrow"/>
  <text x="804" y="442" class="small">lee Parquet via DuckDB</text>

  <rect x="500" y="604" width="280" height="58" rx="8" class="card-soft"/>
  <text x="520" y="628" class="body">Tablas Parquet: dim_customers,</text>
  <text x="520" y="647" class="body">dim_products, dim_locations, fact_orders</text>

  <line x1="224" y1="522" x2="224" y2="628" class="arrow-soft"/>
  <line x1="224" y1="628" x2="494" y2="628" class="arrow-soft"/>
  <text x="94" y="594" class="small">datos operacionales se vuelven analiticos</text>

  <rect x="902" y="604" width="288" height="58" rx="8" class="warn"/>
  <text x="922" y="628" class="body">Analytics pesado evita golpear</text>
  <text x="922" y="647" class="body">la base MySQL operacional.</text>

  <rect x="48" y="696" width="1188" height="48" rx="8" class="pill"/>
  <text x="70" y="716" class="small">Orden de ejecucion: db -> frontend -> min_io -> etl -> dashboard.</text>
  <text x="70" y="734" class="small">El frontend usa MySQL; el notebook Jupyter usa la libreria DuckDB sobre Parquet en MinIO.</text>
</svg>
